# Blender 3.3.0
# www.blender.org
mtllib Cathedral.mtl
o Sky
v 0.000000 0.000000 0.000000
v -2.296101 0.000000 -5.543277
v -5.543277 0.000000 -2.296100
v -5.543277 0.000000 2.296101
v -2.296100 0.000000 5.543277
v 2.296101 0.000000 5.543277
v 5.543277 0.000000 2.296100
v 5.543277 0.000000 -2.296101
v 2.296100 0.000000 -5.543277
v 0.000000 0.162612 0.000000
v -2.250255 0.243390 -5.432595
v -5.432595 0.243390 -2.250254
v -5.432595 0.243390 2.250255
v -2.250254 0.243390 5.432595
v 2.250255 0.243390 5.432595
v 5.432595 0.243390 2.250254
v 5.432595 0.243390 -2.250255
v 2.250254 0.243390 -5.432595
v -2.156320 0.243390 -5.205816
v -5.205816 0.243390 -2.156319
v -5.205816 0.243390 2.156320
v -2.156319 0.243390 5.205816
v 2.156320 0.243390 5.205816
v 5.205816 0.243390 2.156319
v 5.205816 0.243390 -2.156320
v 2.156319 0.243390 -5.205816
v -2.110493 0.162612 -5.095181
v -5.095181 0.162612 -2.110493
v -5.095181 0.162612 2.110493
v -2.110493 0.162612 5.095181
v 2.110493 0.162612 5.095181
v 5.095181 0.162612 2.110493
v 5.095181 0.162612 -2.110493
v 2.110493 0.162612 -5.095181
vn -0.0000 -1.0000 -0.0000
vn -0.0000 1.0000 -0.0000
vn 0.6437 0.4140 -0.6437
vn 0.9103 0.4140 -0.0000
vn -0.6437 0.4140 -0.6437
vn 0.6437 0.4140 0.6437
vn -0.0000 0.4140 0.9103
vn -0.6437 0.4140 0.6437
vn -0.9103 0.4140 -0.0000
vn -0.0000 0.4140 -0.9103
vn 0.5897 0.8076 -0.0000
vn 0.4170 0.8076 -0.4170
vn -0.0000 0.8076 -0.5897
vn -0.4170 0.8076 -0.4170
vn 0.4170 0.8076 0.4170
vn -0.5897 0.8076 -0.0000
vn -0.4170 0.8076 0.4170
vn -0.0000 0.8076 0.5897
vt 0.500000 0.500000
vt 0.500000 1.000000
vt 0.146447 0.853553
vt 0.000000 0.500000
vt 0.146447 0.146447
vt 0.500000 0.000000
vt 0.853553 0.146447
vt 1.000000 0.500000
vt 0.853553 0.853553
vt 0.500000 0.500000
vt 0.500000 1.000000
vt 0.146447 0.853553
vt 0.000000 0.500000
vt 0.146447 0.146447
vt 0.500000 0.000000
vt 0.853553 0.146447
vt 1.000000 0.500000
vt 0.853553 0.853553
vt 0.500000 1.000000
vt 0.146447 0.853553
vt 0.000000 0.500000
vt 0.146447 0.146447
vt 0.500000 0.000000
vt 0.853553 0.146447
vt 1.000000 0.500000
vt 0.853553 0.853553
vt 0.500000 1.000000
vt 0.146447 0.853553
vt 0.000000 0.500000
vt 0.146447 0.146447
vt 0.500000 0.000000
vt 0.853553 0.146447
vt 1.000000 0.500000
vt 0.853553 0.853553
s 0
usemtl Mat_Sky
f 1/1/1 3/3/1 2/2/1
f 1/1/1 4/4/1 3/3/1
f 1/1/1 5/5/1 4/4/1
f 1/1/1 6/6/1 5/5/1
f 1/1/1 7/7/1 6/6/1
f 1/1/1 8/8/1 7/7/1
f 1/1/1 9/9/1 8/8/1
f 1/1/1 2/2/1 9/9/1
f 12/12/2 13/13/2 21/21/2 20/20/2
f 13/13/2 14/14/2 22/22/2 21/21/2
f 14/14/2 15/15/2 23/23/2 22/22/2
f 15/15/2 16/16/2 24/24/2 23/23/2
f 11/11/2 12/12/2 20/20/2 19/19/2
f 16/16/2 17/17/2 25/25/2 24/24/2
f 17/17/2 18/18/2 26/26/2 25/25/2
f 18/18/2 11/11/2 19/19/2 26/26/2
f 8/8/3 9/9/3 18/18/3 17/17/3
f 7/7/4 8/8/4 17/17/4 16/16/4
f 2/2/5 3/3/5 12/12/5 11/11/5
f 6/6/6 7/7/6 16/16/6 15/15/6
f 5/5/7 6/6/7 15/15/7 14/14/7
f 4/4/8 5/5/8 14/14/8 13/13/8
f 3/3/9 4/4/9 13/13/9 12/12/9
f 9/9/10 2/2/10 11/11/10 18/18/10
f 20/20/11 21/21/11 29/29/11 28/28/11
f 21/21/12 22/22/12 30/30/12 29/29/12
f 22/22/13 23/23/13 31/31/13 30/30/13
f 23/23/14 24/24/14 32/32/14 31/31/14
f 19/19/15 20/20/15 28/28/15 27/27/15
f 24/24/16 25/25/16 33/33/16 32/32/16
f 25/25/17 26/26/17 34/34/17 33/33/17
f 26/26/18 19/19/18 27/27/18 34/34/18
usemtl Material
f 10/10/2 27/27/2 28/28/2
f 10/10/2 28/28/2 29/29/2
f 10/10/2 29/29/2 30/30/2
f 10/10/2 30/30/2 31/31/2
f 10/10/2 31/31/2 32/32/2
f 10/10/2 32/32/2 33/33/2
f 10/10/2 33/33/2 34/34/2
f 10/10/2 34/34/2 27/27/2
o Mat_Cube
v 0.000000 0.000000 0.000000
v -8.000000 0.000000 0.000000
v -7.727407 0.000000 2.070552
v -6.928203 0.000000 4.000000
v -5.656854 0.000000 5.656854
v -4.000000 0.000000 6.928203
v -2.070552 0.000000 7.727407
v 0.000000 0.000000 8.000000
v 2.070552 0.000000 7.727407
v 4.000000 0.000000 6.928203
v 5.656854 0.000000 5.656854
v 6.928203 0.000000 4.000000
v 7.727407 0.000000 2.070552
v 8.000000 0.000000 0.000000
v -8.000000 1.000000 0.000000
v -7.727407 1.000000 2.070552
v -6.928203 1.000000 4.000000
v -5.656854 1.000000 5.656854
v -4.000000 1.000000 6.928203
v -2.070552 1.000000 7.727407
v 0.000000 1.000000 8.000000
v 2.070552 1.000000 7.727407
v 4.000000 1.000000 6.928203
v 5.656854 1.000000 5.656854
v 6.928203 1.000000 4.000000
v 7.727407 1.000000 2.070552
v 8.000000 1.000000 0.000000
v -9.630876 1.000000 -0.000000
v -9.302711 1.000000 2.492654
v -8.340583 1.000000 4.815438
v -6.810057 1.000000 6.810057
v -4.815438 1.000000 8.340583
v -2.492654 1.000000 9.302711
v -0.000000 1.000000 9.630876
v 2.492654 1.000000 9.302711
v 4.815438 1.000000 8.340583
v 6.810057 1.000000 6.810057
v 8.340583 1.000000 4.815438
v 9.302711 1.000000 2.492654
v 9.630876 1.000000 -0.000000
v -9.630876 10.000000 -0.000000
v -9.302711 10.000000 2.492654
v -8.340583 10.000000 4.815438
v -6.810057 10.000000 6.810057
v -4.815438 10.000000 8.340583
v -2.492654 10.000000 9.302711
v -0.000000 10.000000 9.630876
v 2.492654 10.000000 9.302711
v 4.815438 10.000000 8.340583
v 6.810057 10.000000 6.810057
v 8.340583 10.000000 4.815438
v 9.302711 10.000000 2.492654
v 9.630876 10.000000 -0.000000
v 0.000000 0.000000 -1.000000
v -8.000000 0.000000 -1.000000
v 8.000000 0.000000 -1.000000
v -8.000000 1.000000 -1.000000
v 8.000000 1.000000 -1.000000
v -9.630876 1.000000 -1.000000
v 9.630876 1.000000 -1.000000
v -9.630876 10.000000 -1.000000
v 9.630876 10.000000 -1.000000
v 0.000000 0.000000 -2.000000
v -8.000000 0.000000 -2.000000
v 8.000000 0.000000 -2.000000
v -8.000000 1.000000 -2.000000
v 8.000000 1.000000 -2.000000
v -9.630876 1.000000 -2.000000
v 9.630876 1.000000 -2.000000
v -9.630876 10.000000 -2.000000
v 9.630876 10.000000 -2.000000
v 0.000000 0.000000 -3.000000
v -8.000000 0.000000 -3.000000
v 8.000000 0.000000 -3.000000
v -8.000000 1.000000 -3.000000
v 8.000000 1.000000 -3.000000
v -9.630876 1.000000 -3.000000
v 9.630876 1.000000 -3.000000
v -9.630876 10.000000 -3.000000
v 9.630876 10.000000 -3.000000
v 0.000000 0.000000 -4.000000
v -8.000000 0.000000 -4.000000
v 8.000000 0.000000 -4.000000
v -8.000000 1.000000 -4.000000
v 8.000000 1.000000 -4.000000
v -9.630876 1.000000 -4.000000
v 9.630876 1.000000 -4.000000
v -9.630876 10.000000 -4.000000
v 9.630876 10.000000 -4.000000
v 0.000000 0.000000 -5.000000
v -8.000000 0.000000 -5.000000
v 8.000000 0.000000 -5.000000
v -8.000000 1.000000 -5.000000
v 8.000000 1.000000 -5.000000
v -9.630876 1.000000 -5.000000
v 9.630876 1.000000 -5.000000
v -9.630876 10.000000 -5.000000
v 9.630876 10.000000 -5.000000
v 0.000000 0.000000 -6.000000
v -8.000000 0.000000 -6.000000
v 8.000000 0.000000 -6.000000
v -8.000000 1.000000 -6.000000
v 8.000000 1.000000 -6.000000
v -9.630876 1.000000 -6.000000
v 9.630876 1.000000 -6.000000
v -9.630876 10.000000 -6.000000
v 9.630876 10.000000 -6.000000
v 0.000000 0.000000 -7.000000
v -8.000000 0.000000 -7.000000
v 8.000000 0.000000 -7.000000
v -8.000000 1.000000 -7.000000
v 8.000000 1.000000 -7.000000
v -9.630876 1.000000 -7.000000
v 9.630876 1.000000 -7.000000
v -9.630876 10.000000 -7.000000
v 9.630876 10.000000 -7.000000
v 0.000000 0.000000 -8.000000
v -8.000000 0.000000 -8.000000
v 8.000000 0.000000 -8.000000
v -8.000000 1.000000 -8.000000
v 8.000000 1.000000 -8.000000
v -9.630876 1.000000 -8.000000
v 9.630876 1.000000 -8.000000
v -9.630876 10.000000 -8.000000
v 9.630876 10.000000 -8.000000
v 0.000000 0.000000 -9.000000
v -8.000000 0.000000 -9.000000
v 8.000000 0.000000 -9.000000
v -8.000000 1.000000 -9.000000
v 8.000000 1.000000 -9.000000
v -9.630876 1.000000 -9.000000
v 9.630876 1.000000 -9.000000
v -9.630876 10.000000 -9.000000
v 9.630876 10.000000 -9.000000
v 0.000000 0.000000 -10.000000
v -8.000000 0.000000 -10.000000
v 8.000000 0.000000 -10.000000
v -8.000000 1.000000 -10.000000
v 8.000000 1.000000 -10.000000
v -9.630876 1.000000 -10.000000
v 9.630876 1.000000 -10.000000
v -9.630876 10.000000 -10.000000
v 9.630876 10.000000 -10.000000
v 0.000000 0.000000 -11.000000
v -8.000000 0.000000 -11.000000
v 8.000000 0.000000 -11.000000
v -8.000000 1.000000 -11.000000
v 8.000000 1.000000 -11.000000
v -9.630876 1.000000 -11.000000
v 9.630876 1.000000 -11.000000
v -9.630876 10.000000 -11.000000
v 9.630876 10.000000 -11.000000
vn -0.0000 1.0000 -0.0000
vn 0.1305 -0.0000 -0.9914
vn -0.7934 -0.0000 -0.6088
vn 0.7934 -0.0000 -0.6088
vn -0.1305 -0.0000 -0.9914
vn -0.9239 -0.0000 -0.3827
vn 0.6088 -0.0000 -0.7934
vn -0.3827 -0.0000 -0.9239
vn -0.9914 -0.0000 -0.1305
vn 0.9914 -0.0000 -0.1305
vn 0.3827 -0.0000 -0.9239
vn -0.6088 -0.0000 -0.7934
vn 0.9239 -0.0000 -0.3827
vn -1.0000 -0.0000 -0.0000
vn 1.0000 -0.0000 -0.0000
vt 0.500000 0.500000
vt 0.000000 0.500000
vt 0.017037 0.370590
vt 0.066987 0.250000
vt 0.146447 0.146447
vt 0.250000 0.066987
vt 0.370590 0.017037
vt 0.500000 0.000000
vt 0.629410 0.017037
vt 0.750000 0.066987
vt 0.853553 0.146447
vt 0.933013 0.250000
vt 0.982963 0.370590
vt 1.000000 0.500000
vt 0.000000 0.500000
vt 0.017037 0.370590
vt 0.066987 0.250000
vt 0.146447 0.146447
vt 0.250000 0.066987
vt 0.370590 0.017037
vt 0.500000 0.000000
vt 0.629410 0.017037
vt 0.750000 0.066987
vt 0.853553 0.146447
vt 0.933013 0.250000
vt 0.982963 0.370590
vt 1.000000 0.500000
vt 0.000000 0.500000
vt 0.017037 0.370590
vt 0.066987 0.250000
vt 0.146447 0.146447
vt 0.250000 0.066987
vt 0.370590 0.017037
vt 0.500000 0.000000
vt 0.629410 0.017037
vt 0.750000 0.066987
vt 0.853553 0.146447
vt 0.933013 0.250000
vt 0.982963 0.370590
vt 1.000000 0.500000
vt 0.000000 0.500000
vt 0.017037 0.370590
vt 0.066987 0.250000
vt 0.146447 0.146447
vt 0.250000 0.066987
vt 0.370590 0.017037
vt 0.500000 0.000000
vt 0.629410 0.017037
vt 0.750000 0.066987
vt 0.853553 0.146447
vt 0.933013 0.250000
vt 0.982963 0.370590
vt 1.000000 0.500000
vt 0.500000 0.500000
vt 0.000000 0.500000
vt 1.000000 0.500000
vt 0.000000 0.500000
vt 1.000000 0.500000
vt 0.000000 0.500000
vt 1.000000 0.500000
vt 0.000000 0.500000
vt 1.000000 0.500000
vt 0.500000 0.500000
vt 0.000000 0.500000
vt 1.000000 0.500000
vt 0.000000 0.500000
vt 1.000000 0.500000
vt 0.000000 0.500000
vt 1.000000 0.500000
vt 0.000000 0.500000
vt 1.000000 0.500000
vt 0.500000 0.500000
vt 0.000000 0.500000
vt 1.000000 0.500000
vt 0.000000 0.500000
vt 1.000000 0.500000
vt 0.000000 0.500000
vt 1.000000 0.500000
vt 0.000000 0.500000
vt 1.000000 0.500000
vt 0.500000 0.500000
vt 0.000000 0.500000
vt 1.000000 0.500000
vt 0.000000 0.500000
vt 1.000000 0.500000
vt 0.000000 0.500000
vt 1.000000 0.500000
vt 0.000000 0.500000
vt 1.000000 0.500000
vt 0.500000 0.500000
vt 0.000000 0.500000
vt 1.000000 0.500000
vt 0.000000 0.500000
vt 1.000000 0.500000
vt 0.000000 0.500000
vt 1.000000 0.500000
vt 0.000000 0.500000
vt 1.000000 0.500000
vt 0.500000 0.500000
vt 0.000000 0.500000
vt 1.000000 0.500000
vt 0.000000 0.500000
vt 1.000000 0.500000
vt 0.000000 0.500000
vt 1.000000 0.500000
vt 0.000000 0.500000
vt 1.000000 0.500000
vt 0.500000 0.500000
vt 0.000000 0.500000
vt 1.000000 0.500000
vt 0.000000 0.500000
vt 1.000000 0.500000
vt 0.000000 0.500000
vt 1.000000 0.500000
vt 0.000000 0.500000
vt 1.000000 0.500000
vt 0.500000 0.500000
vt 0.000000 0.500000
vt 1.000000 0.500000
vt 0.000000 0.500000
vt 1.000000 0.500000
vt 0.000000 0.500000
vt 1.000000 0.500000
vt 0.000000 0.500000
vt 1.000000 0.500000
vt 0.500000 0.500000
vt 0.000000 0.500000
vt 1.000000 0.500000
vt 0.000000 0.500000
vt 1.000000 0.500000
vt 0.000000 0.500000
vt 1.000000 0.500000
vt 0.000000 0.500000
vt 1.000000 0.500000
vt 0.500000 0.500000
vt 0.000000 0.500000
vt 1.000000 0.500000
vt 0.000000 0.500000
vt 1.000000 0.500000
vt 0.000000 0.500000
vt 1.000000 0.500000
vt 0.000000 0.500000
vt 1.000000 0.500000
vt 0.500000 0.500000
vt 0.000000 0.500000
vt 1.000000 0.500000
vt 0.000000 0.500000
vt 1.000000 0.500000
vt 0.000000 0.500000
vt 1.000000 0.500000
vt 0.000000 0.500000
vt 1.000000 0.500000
s 0
usemtl Material.001
f 35/35/19 36/36/19 37/37/19
f 35/35/19 37/37/19 38/38/19
f 35/35/19 38/38/19 39/39/19
f 35/35/19 39/39/19 40/40/19
f 35/35/19 40/40/19 41/41/19
f 35/35/19 41/41/19 42/42/19
f 35/35/19 42/42/19 43/43/19
f 35/35/19 43/43/19 44/44/19
f 35/35/19 44/44/19 45/45/19
f 35/35/19 45/45/19 46/46/19
f 35/35/19 46/46/19 47/47/19
f 35/35/19 47/47/19 48/48/19
f 42/42/20 41/41/20 54/54/20 55/55/20
f 46/46/21 45/45/21 58/58/21 59/59/21
f 39/39/22 38/38/22 51/51/22 52/52/22
f 43/43/23 42/42/23 55/55/23 56/56/23
f 47/47/24 46/46/24 59/59/24 60/60/24
f 40/40/25 39/39/25 52/52/25 53/53/25
f 44/44/26 43/43/26 56/56/26 57/57/26
f 48/48/27 47/47/27 60/60/27 61/61/27
f 37/37/28 36/36/28 49/49/28 50/50/28
f 41/41/29 40/40/29 53/53/29 54/54/29
f 45/45/30 44/44/30 57/57/30 58/58/30
f 38/38/31 37/37/31 50/50/31 51/51/31
f 56/56/19 55/55/19 68/68/19 69/69/19
f 57/57/19 56/56/19 69/69/19 70/70/19
f 50/50/19 49/49/19 62/62/19 63/63/19
f 58/58/19 57/57/19 70/70/19 71/71/19
f 51/51/19 50/50/19 63/63/19 64/64/19
f 59/59/19 58/58/19 71/71/19 72/72/19
f 52/52/19 51/51/19 64/64/19 65/65/19
f 60/60/19 59/59/19 72/72/19 73/73/19
f 53/53/19 52/52/19 65/65/19 66/66/19
f 61/61/19 60/60/19 73/73/19 74/74/19
f 54/54/19 53/53/19 66/66/19 67/67/19
f 55/55/19 54/54/19 67/67/19 68/68/19
f 73/73/24 72/72/24 85/85/24 86/86/24
f 66/66/25 65/65/25 78/78/25 79/79/25
f 74/74/27 73/73/27 86/86/27 87/87/27
f 67/67/29 66/66/29 79/79/29 80/80/29
f 68/68/20 67/67/20 80/80/20 81/81/20
f 69/69/23 68/68/23 81/81/23 82/82/23
f 70/70/26 69/69/26 82/82/26 83/83/26
f 63/63/28 62/62/28 75/75/28 76/76/28
f 71/71/30 70/70/30 83/83/30 84/84/30
f 64/64/31 63/63/31 76/76/31 77/77/31
f 72/72/21 71/71/21 84/84/21 85/85/21
f 65/65/22 64/64/22 77/77/22 78/78/22
f 48/48/32 61/61/32 92/92/32 90/90/32
f 35/35/19 48/48/19 90/90/19 88/88/19
f 36/36/19 35/35/19 88/88/19 89/89/19
f 62/62/19 49/49/19 91/91/19 93/93/19
f 75/75/33 62/62/33 93/93/33 95/95/33
f 61/61/19 74/74/19 94/94/19 92/92/19
f 74/74/32 87/87/32 96/96/32 94/94/32
f 49/49/33 36/36/33 89/89/33 91/91/33
f 92/92/19 94/94/19 103/103/19 101/101/19
f 90/90/32 92/92/32 101/101/32 99/99/32
f 88/88/19 90/90/19 99/99/19 97/97/19
f 94/94/32 96/96/32 105/105/32 103/103/32
f 93/93/19 91/91/19 100/100/19 102/102/19
f 91/91/33 89/89/33 98/98/33 100/100/33
f 89/89/19 88/88/19 97/97/19 98/98/19
f 95/95/33 93/93/33 102/102/33 104/104/33
f 103/103/32 105/105/32 114/114/32 112/112/32
f 102/102/19 100/100/19 109/109/19 111/111/19
f 100/100/33 98/98/33 107/107/33 109/109/33
f 98/98/19 97/97/19 106/106/19 107/107/19
f 104/104/33 102/102/33 111/111/33 113/113/33
f 101/101/19 103/103/19 112/112/19 110/110/19
f 99/99/32 101/101/32 110/110/32 108/108/32
f 97/97/19 99/99/19 108/108/19 106/106/19
f 111/111/19 109/109/19 118/118/19 120/120/19
f 109/109/33 107/107/33 116/116/33 118/118/33
f 107/107/19 106/106/19 115/115/19 116/116/19
f 113/113/33 111/111/33 120/120/33 122/122/33
f 110/110/19 112/112/19 121/121/19 119/119/19
f 108/108/32 110/110/32 119/119/32 117/117/32
f 106/106/19 108/108/19 117/117/19 115/115/19
f 112/112/32 114/114/32 123/123/32 121/121/32
f 122/122/33 120/120/33 129/129/33 131/131/33
f 119/119/19 121/121/19 130/130/19 128/128/19
f 117/117/32 119/119/32 128/128/32 126/126/32
f 115/115/19 117/117/19 126/126/19 124/124/19
f 121/121/32 123/123/32 132/132/32 130/130/32
f 120/120/19 118/118/19 127/127/19 129/129/19
f 118/118/33 116/116/33 125/125/33 127/127/33
f 116/116/19 115/115/19 124/124/19 125/125/19
f 126/126/32 128/128/32 137/137/32 135/135/32
f 124/124/19 126/126/19 135/135/19 133/133/19
f 130/130/32 132/132/32 141/141/32 139/139/32
f 129/129/19 127/127/19 136/136/19 138/138/19
f 127/127/33 125/125/33 134/134/33 136/136/33
f 125/125/19 124/124/19 133/133/19 134/134/19
f 131/131/33 129/129/33 138/138/33 140/140/33
f 128/128/19 130/130/19 139/139/19 137/137/19
f 139/139/32 141/141/32 150/150/32 148/148/32
f 138/138/19 136/136/19 145/145/19 147/147/19
f 136/136/33 134/134/33 143/143/33 145/145/33
f 134/134/19 133/133/19 142/142/19 143/143/19
f 140/140/33 138/138/33 147/147/33 149/149/33
f 137/137/19 139/139/19 148/148/19 146/146/19
f 135/135/32 137/137/32 146/146/32 144/144/32
f 133/133/19 135/135/19 144/144/19 142/142/19
f 145/145/33 143/143/33 152/152/33 154/154/33
f 143/143/19 142/142/19 151/151/19 152/152/19
f 149/149/33 147/147/33 156/156/33 158/158/33
f 146/146/19 148/148/19 157/157/19 155/155/19
f 144/144/32 146/146/32 155/155/32 153/153/32
f 142/142/19 144/144/19 153/153/19 151/151/19
f 148/148/32 150/150/32 159/159/32 157/157/32
f 147/147/19 145/145/19 154/154/19 156/156/19
f 158/158/33 156/156/33 165/165/33 167/167/33
f 155/155/19 157/157/19 166/166/19 164/164/19
f 153/153/32 155/155/32 164/164/32 162/162/32
f 151/151/19 153/153/19 162/162/19 160/160/19
f 157/157/32 159/159/32 168/168/32 166/166/32
f 156/156/19 154/154/19 163/163/19 165/165/19
f 154/154/33 152/152/33 161/161/33 163/163/33
f 152/152/19 151/151/19 160/160/19 161/161/19
f 160/160/19 162/162/19 171/171/19 169/169/19
f 166/166/32 168/168/32 177/177/32 175/175/32
f 165/165/19 163/163/19 172/172/19 174/174/19
f 163/163/33 161/161/33 170/170/33 172/172/33
f 161/161/19 160/160/19 169/169/19 170/170/19
f 167/167/33 165/165/33 174/174/33 176/176/33
f 164/164/19 166/166/19 175/175/19 173/173/19
f 162/162/32 164/164/32 173/173/32 171/171/32
f 175/175/32 177/177/32 186/186/32 184/184/32
f 174/174/19 172/172/19 181/181/19 183/183/19
f 172/172/33 170/170/33 179/179/33 181/181/33
f 170/170/19 169/169/19 178/178/19 179/179/19
f 176/176/33 174/174/33 183/183/33 185/185/33
f 173/173/19 175/175/19 184/184/19 182/182/19
f 171/171/32 173/173/32 182/182/32 180/180/32
f 169/169/19 171/171/19 180/180/19 178/178/19
